<?xml version="1.0" encoding="UTF-8"?>
<svg version="1.1" xmlns="http://www.w3.org/2000/svg" width="764" height="249">
<path d="M0 0 C3.22393522 1.56896133 6.2933059 3.35739177 9.375 5.1875 C10.28983154 5.72068848 11.20466309 6.25387695 12.1472168 6.80322266 C14.10194081 7.94376752 16.05427199 9.0884216 18.00439453 10.23681641 C20.9545838 11.97326848 23.91151298 13.69758006 26.87109375 15.41796875 C30.87676542 17.74739343 34.87928335 20.08207957 38.87890625 22.421875 C42.96673755 24.81303092 47.05789773 27.19831359 51.15234375 29.578125 C56.13989228 32.47705806 61.12008247 35.38832175 66.09716797 38.30517578 C69.0078779 40.00459953 71.92740612 41.68812947 74.84765625 43.37109375 C76.66962883 44.43428257 78.49125998 45.49805679 80.3125 46.5625 C81.1487793 47.03896973 81.98505859 47.51543945 82.84667969 48.00634766 C83.6152832 48.45929199 84.38388672 48.91223633 85.17578125 49.37890625 C86.17992065 49.96007202 86.17992065 49.96007202 87.2043457 50.55297852 C90.35390592 53.09104016 91.85007984 55.85466499 92.3742218 59.85891724 C92.37359238 60.90465912 92.37296295 61.950401 92.37231445 63.02783203 C92.37854324 64.21901642 92.38477203 65.41020081 92.39118958 66.63748169 C92.37737495 68.55329544 92.37737495 68.55329544 92.36328125 70.5078125 C92.36402901 72.48417191 92.36402901 72.48417191 92.36479187 74.50045776 C92.36470237 77.28281168 92.35431669 80.06487447 92.33618164 82.84716797 C92.31345072 86.41276255 92.31296064 89.97793383 92.31969929 93.54358101 C92.32384288 96.9483732 92.31187067 100.3530349 92.30078125 103.7578125 C92.30169266 105.03907013 92.30260406 106.32032776 92.30354309 107.64041138 C92.29401108 108.82529144 92.28447906 110.01017151 92.2746582 111.23095703 C92.27005081 112.27510773 92.26544342 113.31925842 92.26069641 114.39505005 C92 117 92 117 90 120 C85.70404177 118.69520126 82.01809322 117.03928404 78.1328125 114.796875 C77.01245605 114.15355225 75.89209961 113.51022949 74.73779297 112.84741211 C73.53344224 112.14842359 72.32918014 111.44928235 71.125 110.75 C69.86758835 110.02505888 68.60993506 109.30053673 67.35205078 108.57641602 C63.56321198 106.39255507 59.78063915 104.19801917 56 102 C54.93201172 101.37915527 53.86402344 100.75831055 52.76367188 100.11865234 C48.83092738 97.82962263 44.90012477 95.53732906 40.97265625 93.23925781 C32.30576379 88.16814216 23.60858758 83.15050839 14.90185547 78.14819336 C13.88494629 77.56303955 12.86803711 76.97788574 11.8203125 76.375 C10.93617676 75.86710937 10.05204102 75.35921875 9.14111328 74.8359375 C4.73773523 72.26222361 0.36947103 69.63076116 -4 67 C-3.99555878 68.09802948 -3.99111755 69.19605896 -3.98654175 70.32736206 C-3.94606032 80.65746009 -3.91604676 90.9875421 -3.89637566 101.31770134 C-3.88592271 106.62898938 -3.87173603 111.94021356 -3.84912109 117.25146484 C-3.82744648 122.37372595 -3.81544277 127.4959255 -3.81024551 132.61822891 C-3.80654006 134.5759287 -3.79930459 136.53362498 -3.78853989 138.49129868 C-3.77409643 141.22588221 -3.77201904 143.9602089 -3.77294922 146.69482422 C-3.76575867 147.51049866 -3.75856812 148.3261731 -3.75115967 149.16656494 C-3.77189568 154.77189568 -3.77189568 154.77189568 -6 157 C-12.09150545 156.94324684 -16.73670665 153.46404432 -21.75 150.375 C-23.72832003 149.18088789 -25.70752347 147.98823842 -27.6875 146.796875 C-28.72132812 146.17232422 -29.75515625 145.54777344 -30.8203125 144.90429688 C-36.09294742 141.74654562 -41.42122607 138.68674136 -46.75 135.625 C-47.82403076 135.00616943 -48.89806152 134.38733887 -50.00463867 133.74975586 C-55.10883417 130.80941486 -60.21634277 127.87493433 -65.32833862 124.94818115 C-67.0993601 123.93375517 -68.86962547 122.91802254 -70.63964844 121.90185547 C-72.85360948 120.63127555 -75.06901071 119.36320042 -77.28613281 118.09814453 C-94.53321585 108.19276239 -94.53321585 108.19276239 -98 104 C-98.39440918 101.85061646 -98.39440918 101.85061646 -98.41992188 99.33251953 C-98.43583374 98.38788849 -98.45174561 97.44325745 -98.46813965 96.47000122 C-98.46834106 95.45122894 -98.46854248 94.43245667 -98.46875 93.3828125 C-98.47636353 92.33350555 -98.48397705 91.28419861 -98.49182129 90.20309448 C-98.50263177 87.98226298 -98.50547157 85.7613806 -98.50097656 83.54052734 C-98.50000562 80.14464243 -98.54158977 76.75102647 -98.5859375 73.35546875 C-98.59114544 71.19792138 -98.59383268 69.04036615 -98.59375 66.8828125 C-98.6183429 65.36072678 -98.6183429 65.36072678 -98.64343262 63.80789185 C-98.5745096 56.76454162 -98.5745096 56.76454162 -95.74365234 52.99731445 C-93.36566032 51.26619212 -91.05842991 49.62200183 -88.5078125 48.16015625 C-87.64978027 47.66185303 -86.79174805 47.1635498 -85.90771484 46.65014648 C-84.98941895 46.12622314 -84.07112305 45.6022998 -83.125 45.0625 C-81.13979355 43.91028552 -79.15544534 42.75659131 -77.171875 41.6015625 C-76.15158203 41.00891602 -75.13128906 40.41626953 -74.08007812 39.80566406 C-69.14126088 36.91033334 -64.25802096 33.92566679 -59.375 30.9375 C-49.7029642 25.02962758 -39.99759756 19.17998851 -30.27197266 13.36083984 C-28.0690502 12.04135889 -25.86810377 10.71865384 -23.66796875 9.39453125 C-22.9925 8.98823486 -22.31703125 8.58193848 -21.62109375 8.16333008 C-19.83442804 7.08839799 -18.04806003 6.01297115 -16.26171875 4.9375 C-15.18535156 4.298125 -14.10898438 3.65875 -13 3 C-12.41943848 2.61328125 -11.83887695 2.2265625 -11.24072266 1.828125 C-7.01357013 -0.87503084 -4.76831723 -1.62690724 0 0 Z " fill="#333D43" transform="translate(98,92)"/>
<path d="M0 0 C3.06005859 1.32250977 3.06005859 1.32250977 6.1484375 3.19140625 C6.71399857 3.52781631 7.27955963 3.86422638 7.86225891 4.21083069 C9.70880039 5.31385833 11.54152856 6.43790591 13.375 7.5625 C14.67207446 8.34241261 15.97002105 9.12087644 17.26879883 9.89794922 C20.56548499 11.87475443 23.85168518 13.86828391 27.13519287 15.86688232 C30.96389636 18.19332753 34.80738533 20.49521637 38.64868164 22.80078125 C40.67370022 24.01641062 42.69762856 25.23385798 44.72045898 26.453125 C53.46642585 31.7148692 62.29363915 36.82848836 71.14916992 41.90283203 C73.15084711 43.05024561 75.15053676 44.20113541 77.14794922 45.35595703 C79.05924383 46.45770827 80.9776878 47.54714337 82.90283203 48.62451172 C83.80243652 49.13900879 84.70204102 49.65350586 85.62890625 50.18359375 C86.82302124 50.85539673 86.82302124 50.85539673 88.04125977 51.54077148 C90.34387578 53.25618167 90.95671708 54.33767651 92 57 C92.24050903 59.72088623 92.24050903 59.72088623 92.22705078 62.87011719 C92.22682419 64.64150055 92.22682419 64.64150055 92.22659302 66.44866943 C92.21627045 67.71857727 92.20594788 68.98848511 92.1953125 70.296875 C92.1924826 71.60078186 92.18965271 72.90468872 92.18673706 74.24810791 C92.17911721 77.7070895 92.15948308 81.16590193 92.1373291 84.62481689 C92.11683503 88.15740674 92.10772774 91.69002403 92.09765625 95.22265625 C92.07623548 102.14850679 92.04211956 109.07424526 92 116 C89 117 89 117 86.8984375 116.13671875 C86.06570312 115.65847656 85.23296875 115.18023437 84.375 114.6875 C83.40304688 114.13449219 82.43109375 113.58148438 81.4296875 113.01171875 C76.70298905 110.23922478 71.97662182 107.46625735 67.26123047 104.67456055 C63.37611073 102.37825893 59.47742925 100.13423033 55.5 98 C49.55517877 94.80099306 43.76280011 91.35777946 37.953125 87.921875 C31.17186353 83.91349538 24.35952525 79.95823836 17.55004883 75.99804688 C16.58607178 75.43666016 15.62209473 74.87527344 14.62890625 74.296875 C13.68805176 73.75353516 12.74719727 73.21019531 11.77783203 72.65039062 C9.9154963 71.54392292 8.07734671 70.39577 6.26513672 69.20898438 C1.47759485 66.01822098 1.47759485 66.01822098 -4.01171875 64.7734375 C-8.54880782 66.63571981 -12.63765061 69.0634317 -16.8125 71.625 C-17.77027344 72.20185547 -18.72804688 72.77871094 -19.71484375 73.37304688 C-21.76230022 74.60707587 -23.80731941 75.84515619 -25.85009766 77.08691406 C-30.01048396 79.61371511 -34.18543868 82.11587043 -38.3605957 84.61816406 C-40.46013958 85.87668216 -42.55893119 87.13645605 -44.65698242 88.39746094 C-52.53361222 93.13089208 -60.43498781 97.82095956 -68.35498047 102.48144531 C-72.43992836 104.88701736 -76.51586493 107.30385221 -80.5625 109.7734375 C-81.25520996 110.19512207 -81.94791992 110.61680664 -82.66162109 111.05126953 C-83.9225536 111.82112512 -85.18093118 112.59518995 -86.43603516 113.37451172 C-89.24356144 115.08734145 -91.73265694 116.4580992 -95 117 C-97.31157812 110.55928619 -97.32257949 104.44167324 -97.3359375 97.64453125 C-97.3425943 96.46533615 -97.3492511 95.28614105 -97.35610962 94.07121277 C-97.3662046 91.58761144 -97.37092762 89.10398315 -97.37060547 86.62036133 C-97.37499732 82.81481811 -97.41140354 79.01041784 -97.44921875 75.20507812 C-97.45508371 72.78906646 -97.45905525 70.3730493 -97.4609375 67.95703125 C-97.47530853 66.81845169 -97.48967957 65.67987213 -97.50448608 64.50679016 C-97.49833282 63.44856552 -97.49217957 62.39034088 -97.48583984 61.30004883 C-97.48868988 60.37074051 -97.49153992 59.44143219 -97.49447632 58.48396301 C-96.84720095 55.23242594 -95.51420686 54.09310112 -93 52 C-91.04595059 50.70138571 -89.05119631 49.46306595 -87.03125 48.26953125 C-86.44726944 47.92196274 -85.86328888 47.57439423 -85.26161194 47.21629333 C-84.00213391 46.46756079 -82.7410552 45.72151553 -81.47854614 44.97790527 C-78.77754604 43.38695943 -76.0843528 41.78300093 -73.39051819 40.17996216 C-71.99553097 39.35007149 -70.60013062 38.52087491 -69.20433044 37.69235229 C-62.29599683 33.59032366 -55.42589125 29.42665188 -48.5625 25.25 C-47.40945346 24.54902352 -46.25637744 23.84809554 -45.10327148 23.1472168 C-41.73490842 21.09913842 -38.36731601 19.04979934 -35 17 C-33.33130859 15.98437988 -33.33130859 15.98437988 -31.62890625 14.94824219 C-25.40974592 11.16298373 -25.40974592 11.16298373 -19.19165039 7.37597656 C-18.31500732 6.84198242 -17.43836426 6.30798828 -16.53515625 5.7578125 C-15.775979 5.2952002 -15.01680176 4.83258789 -14.23461914 4.35595703 C-13.49719482 3.90849121 -12.75977051 3.46102539 -12 3 C-11.2258374 2.44812012 -10.4516748 1.89624023 -9.65405273 1.32763672 C-6.15984416 -0.42027113 -3.87100139 -0.41938053 0 0 Z " fill="#0F8638" transform="translate(97,0)"/>
<path d="M0 0 C23.1 0 46.2 0 70 0 C70 6.6 70 13.2 70 20 C54.16 20 38.32 20 22 20 C22 28.25 22 36.5 22 45 C36.85 45 51.7 45 67 45 C67 51.6 67 58.2 67 65 C52.15 65 37.3 65 22 65 C22 73.25 22 81.5 22 90 C38.17 90 54.34 90 71 90 C72.17829199 92.35658397 72.04414372 93.52573236 71.87890625 96.1328125 C71.83056641 96.93847656 71.78222656 97.74414062 71.73242188 98.57421875 C71.67634766 99.41597656 71.62027344 100.25773437 71.5625 101.125 C71.51029297 101.97449219 71.45808594 102.82398438 71.40429688 103.69921875 C71.27448622 105.79979124 71.1378826 107.89994191 71 110 C68.14987305 111.42506348 65.73283753 111.12728307 62.54663086 111.12939453 C61.55373802 111.13202301 61.55373802 111.13202301 60.54078674 111.13470459 C58.34877923 111.13911264 56.15685211 111.13618914 53.96484375 111.1328125 C52.44552088 111.13348576 50.92619811 111.13445597 49.40687561 111.13571167 C46.22167943 111.13718716 43.03651128 111.13503857 39.85131836 111.13037109 C35.75979099 111.12466904 31.66832914 111.12795675 27.57680416 111.13394356 C24.4396566 111.13754906 21.30252469 111.13641072 18.16537666 111.13381577 C16.65622513 111.13314672 15.14707219 111.13397415 13.63792229 111.13629532 C11.53323448 111.1388222 9.42865435 111.13498103 7.32397461 111.12939453 C5.5243351 111.12820114 5.5243351 111.12820114 3.68833923 111.12698364 C1 111 1 111 0 110 C-0.09554399 108.57053529 -0.12188438 107.13637335 -0.12025452 105.70372009 C-0.12162918 104.77678848 -0.12300385 103.84985687 -0.12442017 102.89483643 C-0.12082489 101.86985046 -0.11722961 100.8448645 -0.11352539 99.78881836 C-0.11367142 98.71577957 -0.11381744 97.64274078 -0.1139679 96.53718567 C-0.11326824 92.97138484 -0.10547338 89.40563551 -0.09765625 85.83984375 C-0.09579226 83.37504607 -0.09436827 80.91024801 -0.09336853 78.44544983 C-0.08954187 71.94346095 -0.07971032 65.44149425 -0.06866455 58.93951416 C-0.05602947 51.14605067 -0.0520489 43.35257577 -0.04621124 35.55910492 C-0.03649865 23.7060545 -0.01734311 11.85305278 0 0 Z " fill="#303A3F" transform="translate(248,54)"/>
<path d="M0 0 C8.61671273 6.70035582 14.529753 16.33840239 17 27 C12.95957327 27.26233625 8.92133519 27.42150491 4.875 27.5625 C3.16183594 27.67561523 3.16183594 27.67561523 1.4140625 27.79101562 C-1.9432016 27.87885102 -4.74505477 27.84249943 -8 27 C-10.19094758 24.89385988 -11.43362288 22.94429619 -12.79223633 20.23583984 C-14.88754353 16.35695903 -17.97593839 14.57548905 -22 13 C-31.40588172 10.49497644 -39.34307715 10.65184335 -48.3125 14.375 C-56.77134005 19.48964747 -60.89368295 26.93458362 -63.375 36.4375 C-65.42303348 48.13451598 -64.59162891 60.67898265 -58.25 70.9375 C-53.91799967 76.85647075 -49.06568123 80.07451815 -42 82 C-33.38989923 82.80826045 -24.68461121 83.252764 -17.0234375 78.703125 C-12.88870598 75.22292627 -10.38811892 70.77623785 -8 66 C0.25 66 8.5 66 17 66 C12.87483452 79.75055159 7.61615663 89.60894941 -5.25390625 96.82421875 C-19.55179512 103.66666151 -35.8215102 105.81171721 -51.25 101.3125 C-64.95895327 96.24230723 -75.26929808 88.18168635 -82 75 C-88.76998683 58.16763152 -90.02872032 37.97066025 -83 21 C-78.52379523 10.50066676 -70.22302657 1.16821787 -60 -4 C-40.5553646 -11.72322044 -17.76433424 -12.12783119 0 0 Z " fill="#313B40" transform="translate(516,63)"/>
<path d="M0 0 C9.46565763 7.88804802 14.6927235 16.08529061 16.75 28.3125 C17.69972717 41.25529353 14.88218957 53.16818572 7 63.63671875 C0.28039663 70.98628493 -9.2458966 76.0058071 -19.2265625 76.515625 C-34.22625498 76.77076026 -44.64668371 74.45948943 -56 64.0625 C-63.32186421 56.33292177 -66.10556895 46.43325903 -66.5625 36 C-66.16192228 23.35954752 -61.78065587 11.19829295 -52.5 2.375 C-37.88621144 -9.29890531 -15.5177143 -10.77535674 0 0 Z M-39.625 17.5625 C-44.44974519 25.7274534 -45.65278482 33.56286868 -43.7109375 42.90625 C-41.87080416 48.97262364 -39.29557051 52.76788553 -34.1875 56.625 C-28.79053609 59.46245957 -22.72484719 59.25323697 -16.94140625 57.6875 C-11.45515009 55.3643972 -8.77597068 51.59210396 -6.25 46.3125 C-4.05401853 39.7245556 -4.18846574 30.3075387 -6.4375 23.6875 C-9.85824087 17.31784459 -14.52656178 13.72571103 -21.25 11.3125 C-28.21422235 10.2995222 -34.56611139 12.76986868 -39.625 17.5625 Z " fill="#313B3F" transform="translate(605.25,89.6875)"/>
<path d="M0 0 C7.60636664 6.21913994 10.88975447 14.98677335 12.6875 24.375 C12.6875 29.655 12.6875 34.935 12.6875 40.375 C-5.1325 40.375 -22.9525 40.375 -41.3125 40.375 C-39.89741527 50.38749153 -39.89741527 50.38749153 -33.875 57.125 C-28.30288097 59.84310685 -22.01721651 60.55435612 -16.0546875 58.65625 C-11.67127802 56.71958174 -11.67127802 56.71958174 -9.19140625 52.75 C-7.3125 50.375 -7.3125 50.375 -5.29785156 49.97143555 C-2.72382937 49.88186618 -0.19759972 49.94017448 2.375 50.0625 C3.26767578 50.08505859 4.16035156 50.10761719 5.08007812 50.13085938 C7.28424272 50.18979426 9.48502672 50.27199182 11.6875 50.375 C9.32939298 60.48265695 4.40377295 67.3160183 -4.24609375 73.23828125 C-13.59451113 78.3807944 -24.74680441 78.66131952 -34.9375 76.25 C-44.11650961 73.40635869 -51.99190862 68.49804028 -57.3125 60.375 C-63.77097238 47.62580776 -65.65616912 33.71183955 -61.28125 19.8984375 C-56.71909086 8.01474878 -49.56688678 0.99801435 -38.14453125 -4.49609375 C-25.59495469 -9.49861461 -11.08245181 -7.36042082 0 0 Z M-39.18359375 16.0703125 C-40.92916551 19.30526098 -40.92916551 19.30526098 -41.3125 27.375 C-30.4225 27.045 -19.5325 26.715 -8.3125 26.375 C-8.69742869 18.33707611 -8.69742869 18.33707611 -12.3125 12.375 C-21.95900946 5.88708213 -31.50391842 7.65824307 -39.18359375 16.0703125 Z " fill="#323C40" transform="translate(751.3125,89.625)"/>
<path d="M0 0 C7.26 0 14.52 0 22 0 C22.33 3.96 22.66 7.92 23 12 C23.9590625 10.4221875 23.9590625 10.4221875 24.9375 8.8125 C28.15912922 4.38500957 31.78739738 1.72202051 37 0 C41.10439557 -0.38478709 44.86190997 -0.23782127 49 0 C49 6.93 49 13.86 49 21 C46.03 21 43.06 21 40 21 C34.93326539 21.62963807 30.00606 22.70089176 26 26 C23.12674968 30.82295589 21.90399724 35.02528322 21.79467773 40.58496094 C21.77473251 41.48559265 21.75478729 42.38622437 21.73423767 43.31414795 C21.70916893 44.75966034 21.70916893 44.75966034 21.68359375 46.234375 C21.66281265 47.22753723 21.64203156 48.22069946 21.62062073 49.24395752 C21.55530251 52.41256882 21.49632261 55.58126211 21.4375 58.75 C21.39429793 60.89974802 21.35068309 63.04948778 21.30664062 65.19921875 C21.1988635 70.46606306 21.09965796 75.73297075 21 81 C14.07 81 7.14 81 0 81 C0 54.27 0 27.54 0 0 Z " fill="#303A3E" transform="translate(634,84)"/>
<path d="M0 0 C1 1 1 1 1.11352539 2.94946289 C1.10828857 3.7821167 1.10305176 4.61477051 1.09765625 5.47265625 C1.09443359 6.37177734 1.09121094 7.27089844 1.08789062 8.19726562 C1.07532227 9.61555664 1.07532227 9.61555664 1.0625 11.0625 C1.05798828 12.01189453 1.05347656 12.96128906 1.04882812 13.93945312 C1.0370011 16.29303065 1.02052025 18.64648477 1 21 C0.0821875 21.09796875 -0.835625 21.1959375 -1.78125 21.296875 C-12.03441591 22.34032914 -12.03441591 22.34032914 -21 27 C-24.01576572 31.66957273 -25.09733539 36.09305722 -25.20532227 41.58496094 C-25.22526749 42.48559265 -25.24521271 43.38622437 -25.26576233 44.31414795 C-25.29083107 45.75966034 -25.29083107 45.75966034 -25.31640625 47.234375 C-25.33718735 48.22753723 -25.35796844 49.22069946 -25.37937927 50.24395752 C-25.44469749 53.41256882 -25.50367739 56.58126211 -25.5625 59.75 C-25.60570207 61.89974802 -25.64931691 64.04948778 -25.69335938 66.19921875 C-25.8011365 71.46606306 -25.90034204 76.73297075 -26 82 C-32.93 82 -39.86 82 -47 82 C-47 55.27 -47 28.54 -47 1 C-40.07 1 -33.14 1 -26 1 C-25.67 4.96 -25.34 8.92 -25 13 C-24.46375 12.113125 -23.9275 11.22625 -23.375 10.3125 C-20.29680349 5.74380834 -16.8000857 2.70003333 -11.625 0.6875 C-7.56755641 -0.08201516 -4.11963509 -0.21308457 0 0 Z " fill="#2F383D" transform="translate(418,83)"/>
<path d="M0 0 C7.26 0 14.52 0 22 0 C22 26.4 22 52.8 22 80 C15.04298915 82.31900362 7.32319742 80.38543144 0 80 C0 53.6 0 27.2 0 0 Z " fill="#323D43" transform="translate(333,84)"/>
<path d="M0 0 C5.50520444 2.19970372 7.49301905 6.88799974 10 12 C12.68726114 18.90181458 13.47748494 24.74937944 12 32 C11.67 33.65 11.34 35.3 11 37 C-6.49 37 -23.98 37 -42 37 C-42 32 -42 32 -41 31 C-40.01 30.67 -39.02 30.34 -38 30 C-38.99 29.01 -39.98 28.02 -41 27 C-39 25 -39 25 -35.92724609 24.77294922 C-34.63898926 24.78342285 -33.35073242 24.79389648 -32.0234375 24.8046875 C-31.33819 24.8075174 -30.6529425 24.81034729 -29.94692993 24.81326294 C-27.75610973 24.82446719 -25.56569684 24.84957141 -23.375 24.875 C-21.8906309 24.88502952 -20.4062554 24.89415542 -18.921875 24.90234375 C-15.28111739 24.92440706 -11.64059844 24.95893824 -8 25 C-8.08378906 24.30132812 -8.16757812 23.60265625 -8.25390625 22.8828125 C-8.40666016 21.51769531 -8.40666016 21.51769531 -8.5625 20.125 C-8.71912109 18.76761719 -8.71912109 18.76761719 -8.87890625 17.3828125 C-9 15 -9 15 -8 13 C-7.34 13 -6.68 13 -6 13 C-5.67 10.69 -5.34 8.38 -5 6 C-2.525 6.495 -2.525 6.495 0 7 C0.15811388 3.94729537 0.15811388 3.94729537 -1 1 C-0.67 0.67 -0.34 0.34 0 0 Z " fill="#353F44" transform="translate(751,91)"/>
<path d="M0 0 C7.26 0 14.52 0 22 0 C22 26.4 22 52.8 22 80 C15.04298915 82.31900362 7.32319742 80.38543144 0 80 C0 53.6 0 27.2 0 0 Z M3 3 C3 27.75 3 52.5 3 78 C8.28 78.33 13.56 78.66 19 79 C19 53.92 19 28.84 19 3 C13.72 3 8.44 3 3 3 Z " fill="#43494D" transform="translate(333,84)"/>
<path d="M0 0 C2.81992717 1.82120296 4.50345478 3.00690956 6 6 C6.42558415 10.62413548 6.51719187 14.73287992 4.75 19.0625 C2.29350632 21.78218943 0.17351939 21.9007756 -3.40234375 22.203125 C-12.28430096 22.36735225 -12.28430096 22.36735225 -16 19 C-18.46579283 15.18922926 -18.21491419 11.50540382 -17.61328125 7.15625 C-16.64898512 3.76585851 -14.74727397 2.09316112 -12 0 C-7.82634534 -1.39121822 -4.25945745 -0.98640067 0 0 Z " fill="#323C40" transform="translate(350,52)"/>
<path d="M0 0 C6.27 0 12.54 0 19 0 C19 4.62 19 9.24 19 14 C18.67 14 18.34 14 18 14 C18 9.71 18 5.42 18 1 C12.72 1 7.44 1 2 1 C2.33 2.65 2.66 4.3 3 6 C3.08597666 8.32985737 3.11772618 10.66196879 3.11352539 12.9934082 C3.11367142 13.67688828 3.11381744 14.36036835 3.1139679 15.06455994 C3.11327462 17.31000001 3.10550974 19.55535577 3.09765625 21.80078125 C3.09578999 23.36305191 3.09436707 24.92532315 3.09336853 26.4875946 C3.08955972 30.58930084 3.07974346 34.69097139 3.06866455 38.79266357 C3.0584152 42.98221351 3.05386337 47.17176925 3.04882812 51.36132812 C3.03811967 59.57423691 3.02053617 67.7871099 3 76 C7.62 76 12.24 76 17 76 C17 76.33 17 76.66 17 77 C16.33613281 77.06058594 15.67226563 77.12117188 14.98828125 77.18359375 C10.59613868 77.6003664 6.31990409 78.08365671 2 79 C1.01 79 0.02 79 -1 79 C-0.67 52.93 -0.34 26.86 0 0 Z " fill="#364045" transform="translate(635,86)"/>
<path d="M0 0 C14.85 0 29.7 0 45 0 C45 6.6 45 13.2 45 20 C30.48 20 15.96 20 1 20 C0.67 19.34 0.34 18.68 0 18 C14.19 18 28.38 18 43 18 C43 12.72 43 7.44 43 2 C28.81 2 14.62 2 0 2 C0 1.34 0 0.68 0 0 Z " fill="#161C20" transform="translate(270,99)"/>
<path d="M0 0 C0.79497894 0.00444122 1.58995789 0.00888245 2.4090271 0.01345825 C3.76020126 0.01368484 3.76020126 0.01368484 5.13867188 0.01391602 C6.11266937 0.02423859 7.08666687 0.03456116 8.09017944 0.04519653 C9.08617157 0.04802643 10.0821637 0.05085632 11.1083374 0.05377197 C14.29771813 0.06499063 17.48682072 0.09009822 20.67611694 0.11550903 C22.83496706 0.12553666 24.99382157 0.13466288 27.15267944 0.14285278 C32.45226621 0.16493548 37.75164438 0.19947679 43.05111694 0.24050903 C43.05111694 5.52050903 43.05111694 10.80050903 43.05111694 16.24050903 C29.19111694 16.24050903 15.33111694 16.24050903 1.05111694 16.24050903 C1.05111694 15.91050903 1.05111694 15.58050903 1.05111694 15.24050903 C14.58111694 15.24050903 28.11111694 15.24050903 42.05111694 15.24050903 C42.05111694 10.62050903 42.05111694 6.00050903 42.05111694 1.24050903 C37.43111694 1.24050903 32.81111694 1.24050903 28.05111694 1.24050903 C28.05111694 1.90050903 28.05111694 2.56050903 28.05111694 3.24050903 C33.49611694 3.73550903 33.49611694 3.73550903 39.05111694 4.24050903 C39.05111694 4.57050903 39.05111694 4.90050903 39.05111694 5.24050903 C34.26396071 5.31466071 29.47713867 5.36911108 24.68954468 5.40530396 C23.06090471 5.42039147 21.43230538 5.4408641 19.80380249 5.46682739 C17.46296159 5.50321352 15.12265776 5.52023523 12.78158569 5.53347778 C12.05336105 5.54896164 11.32513641 5.5644455 10.57484436 5.58039856 C5.49727498 5.58208934 5.49727498 5.58208934 3.06796265 3.72219849 C2.73240356 3.23324097 2.39684448 2.74428345 2.05111694 2.24050903 C2.05111694 2.90050903 2.05111694 3.56050903 2.05111694 4.24050903 C0.07111694 4.24050903 -1.90888306 4.24050903 -3.94888306 4.24050903 C-3.94888306 1.32818836 -2.85205479 0.35196824 0 0 Z " fill="#3B464B" transform="translate(269.9488830566406,100.75949096679688)"/>
<path d="M0 0 C3 2 3 2 4 5 C4.09866095 6.93697695 4.13824421 8.87717509 4.14526367 10.81665039 C4.15483345 12.6084951 4.15483345 12.6084951 4.16459656 14.4365387 C4.16570938 15.72720749 4.1668222 17.01787628 4.16796875 18.34765625 C4.17118185 19.68379248 4.17454596 21.01992836 4.17805481 22.35606384 C4.18403954 25.15445777 4.18589528 27.95282083 4.18530273 30.7512207 C4.1852009 34.341591 4.19887775 37.93176449 4.21607494 41.52208805 C4.2271753 44.2801149 4.22922259 47.03809377 4.22869301 49.79614067 C4.23045068 51.76491126 4.24129967 53.73366688 4.25224304 55.70240784 C4.24916641 56.89381882 4.24608978 58.0852298 4.24291992 59.31274414 C4.24434494 60.36514786 4.24576996 61.41755157 4.24723816 62.50184631 C4 65 4 65 2 67 C1.87625 66.360625 1.7525 65.72125 1.625 65.0625 C1.41875 64.381875 1.2125 63.70125 1 63 C0.34 62.67 -0.32 62.34 -1 62 C-0.505 61.505 -0.505 61.505 0 61 C0.09391296 59.09756238 0.11743658 57.19161541 0.11352539 55.28686523 C0.11341209 53.45507973 0.11341209 53.45507973 0.11329651 51.58628845 C0.10818911 50.24372314 0.10297311 48.90115825 0.09765625 47.55859375 C0.09579199 46.19238842 0.09436813 44.82618243 0.09336853 43.4599762 C0.08954394 39.85798305 0.07971417 36.25603 0.06866455 32.65405273 C0.05844916 28.98096255 0.05387064 25.30786591 0.04882812 21.63476562 C0.03809184 14.42315877 0.02101614 7.211585 0 0 Z " fill="#43474C" transform="translate(186,144)"/>
<path d="M0 0 C0.33 0 0.66 0 1 0 C1 3.3 1 6.6 1 10 C-6.20824173 10.04936892 -13.41638546 10.08570492 -20.62475586 10.10986328 C-23.07789829 10.11993245 -25.53102869 10.13358861 -27.98413086 10.15087891 C-31.50637783 10.17508679 -35.02846639 10.18647388 -38.55078125 10.1953125 C-40.20089958 10.21079636 -40.20089958 10.21079636 -41.88435364 10.22659302 C-43.41560127 10.22681961 -43.41560127 10.22681961 -44.9777832 10.22705078 C-45.87713089 10.231492 -46.77647858 10.23593323 -47.70307922 10.24050903 C-50 10 -50 10 -53 8 C-35.84 8 -18.68 8 -1 8 C-0.67 5.36 -0.34 2.72 0 0 Z " fill="#171B1E" transform="translate(763,120)"/>
<path d="M0 0 C8.25 0 16.5 0 25 0 C24.34 2.31 23.68 4.62 23 7 C22.01 7.495 22.01 7.495 21 8 C21.33 6.02 21.66 4.04 22 2 C21.236875 2.350625 20.47375 2.70125 19.6875 3.0625 C14.63244739 4.34768287 10.1235543 3.67463171 5 3 C5 3.99 5 4.98 5 6 C3 6 3 6 1.375 4.5 C0.92125 4.005 0.4675 3.51 0 3 C-0.12375 3.639375 -0.2475 4.27875 -0.375 4.9375 C-0.58125 5.618125 -0.7875 6.29875 -1 7 C-1.99 7.495 -1.99 7.495 -3 8 C-1.125 2.25 -1.125 2.25 0 0 Z " fill="#242B2C" transform="translate(508,129)"/>
<path d="M0 0 C0 6.93 0 13.86 0 21 C-3.96 20.67 -7.92 20.34 -12 20 C-12 19.67 -12 19.34 -12 19 C-8.7 19 -5.4 19 -2 19 C-2 13.06 -2 7.12 -2 1 C-4.31 1 -6.62 1 -9 1 C-8.67 2.32 -8.34 3.64 -8 5 C-11.49418263 6.16472754 -13.4263938 5.6082734 -17 5 C-17.99 5.495 -17.99 5.495 -19 6 C-18 3 -18 3 -15.6875 1.3125 C-10.34409828 -0.58938875 -5.65826076 -0.18860869 0 0 Z " fill="#182022" transform="translate(683,84)"/>
<path d="M0 0 C0.82661133 0.57935303 0.82661133 0.57935303 1.66992188 1.17041016 C0.01992187 1.17041016 -1.63007812 1.17041016 -3.33007812 1.17041016 C-3.66007812 2.49041016 -3.99007812 3.81041016 -4.33007812 5.17041016 C-5.65007812 5.17041016 -6.97007813 5.17041016 -8.33007812 5.17041016 C-8.42289063 6.11207031 -8.42289063 6.11207031 -8.51757812 7.07275391 C-8.78570312 7.76498047 -9.05382812 8.45720703 -9.33007812 9.17041016 C-11.58007812 10.11181641 -11.58007812 10.11181641 -14.33007812 10.73291016 C-17.02606857 11.29164312 -17.02606857 11.29164312 -19.33007812 12.17041016 C-19.66007812 13.16041016 -19.99007812 14.15041016 -20.33007812 15.17041016 C-22.39257813 15.85791016 -22.39257813 15.85791016 -24.33007812 16.17041016 C-24.33007812 16.50041016 -24.33007812 16.83041016 -24.33007812 17.17041016 C-25.98007812 17.17041016 -27.63007812 17.17041016 -29.33007812 17.17041016 C-24.8071966 12.34997064 -19.42511911 9.23798161 -13.83007812 5.79541016 C-12.78464844 5.12896484 -11.73921875 4.46251953 -10.66210938 3.77587891 C-9.65535156 3.15583984 -8.64859375 2.53580078 -7.61132812 1.89697266 C-6.69416016 1.32543457 -5.77699219 0.75389648 -4.83203125 0.16503906 C-2.33007812 -0.82958984 -2.33007812 -0.82958984 0 0 Z " fill="#24753B" transform="translate(82.330078125,6.82958984375)"/>
<path d="M0 0 C0.66 0.99 1.32 1.98 2 3 C1.67 4.65 1.34 6.3 1 8 C-10.22 8 -21.44 8 -33 8 C-31 6 -31 6 -27.92724609 5.77294922 C-26.63898926 5.78342285 -25.35073242 5.79389648 -24.0234375 5.8046875 C-23.33819 5.8075174 -22.6529425 5.81034729 -21.94692993 5.81326294 C-19.75610973 5.82446719 -17.56569684 5.84957141 -15.375 5.875 C-13.8906309 5.88502952 -12.4062554 5.89415542 -10.921875 5.90234375 C-7.28111739 5.92440706 -3.64059844 5.95893824 0 6 C0 4.02 0 2.04 0 0 Z " fill="#565C5C" transform="translate(743,110)"/>
<path d="M0 0 C8.69606796 4.07180594 16.8216994 8.99488004 25 14 C21.71699532 15.05833703 20.99446362 14.99812159 17.5 13.8125 C14 12 14 12 12 9.9375 C9.28505655 7.30739854 6.6315577 6.85836818 3 6 C2.01 5.67 1.02 5.34 0 5 C0 3.35 0 1.7 0 0 Z " fill="#257139" transform="translate(111,9)"/>
<path d="M0 0 C1.32 0 2.64 0 4 0 C4.33 1.32 4.66 2.64 5 4 C3.865625 4.309375 2.73125 4.61875 1.5625 4.9375 C-1.78775099 5.62924531 -1.78775099 5.62924531 -3 7 C-3.12232644 8.47250645 -3.1777456 9.95065711 -3.20532227 11.42797852 C-3.22526749 12.36887833 -3.24521271 13.30977814 -3.26576233 14.27919006 C-3.28247482 15.30209641 -3.29918732 16.32500275 -3.31640625 17.37890625 C-3.33718735 18.42070541 -3.35796844 19.46250458 -3.37937927 20.53587341 C-3.44499057 23.87801247 -3.50381331 27.22023285 -3.5625 30.5625 C-3.60567422 32.82227418 -3.64928814 35.08204001 -3.69335938 37.34179688 C-3.80068367 42.89444421 -3.90242812 48.44717321 -4 54 C-4.33 54 -4.66 54 -5 54 C-5.0760407 47.23737792 -5.12859585 40.47486602 -5.16479492 33.71191406 C-5.17988495 31.4110909 -5.20035927 29.11029651 -5.22631836 26.80957031 C-5.26269147 23.50318298 -5.27972432 20.19717584 -5.29296875 16.890625 C-5.30845261 15.86132874 -5.32393646 14.83203247 -5.33988953 13.77154541 C-5.34011612 12.81085144 -5.34034271 11.85015747 -5.34057617 10.86035156 C-5.34723801 10.01651917 -5.35389984 9.17268677 -5.36076355 8.30328369 C-4.77761732 4.58020465 -2.59394073 2.59394073 0 0 Z " fill="#40494E" transform="translate(7,142)"/>
<path d="M0 0 C2.375 1.5625 2.375 1.5625 4 3 C3.67 4.32 3.34 5.64 3 7 C-2.34001821 8.33500455 -5.83955235 7.512545 -11 6 C-9.35 4.68 -7.7 3.36 -6 2 C-6.66 2 -7.32 2 -8 2 C-8 1.34 -8 0.68 -8 0 C-5.05854616 -1.47072692 -3.14695372 -0.75526889 0 0 Z " fill="#313C3D" transform="translate(98,92)"/>
<path d="M0 0 C0.33 0 0.66 0 1 0 C1.12375 0.78375 1.2475 1.5675 1.375 2.375 C1.79117993 5.14057822 1.79117993 5.14057822 4 7 C4 7.99 4 8.98 4 10 C6.97 10.495 6.97 10.495 10 11 C10 11.33 10 11.66 10 12 C12.97 12.33 15.94 12.66 19 13 C14.74135544 15.83909637 10.99683225 15.51085825 6 15 C2.63895878 13.66958785 1.45963255 12.80982878 -0.3125 9.6875 C-1.08355718 6.67336739 -1.21131115 4.09923026 -1 1 C-0.67 0.67 -0.34 0.34 0 0 Z " fill="#292E31" transform="translate(333,59)"/>
<path d="M0 0 C2 3 2 3 1.609375 4.97265625 C1.32578125 5.66230469 1.0421875 6.35195312 0.75 7.0625 C0.34007812 8.10083984 0.34007812 8.10083984 -0.078125 9.16015625 C-1 11 -1 11 -3 13 C-3.45811675 14.97235333 -3.45811675 14.97235333 -3.625 17.125 C-3.74875 18.40375 -3.8725 19.6825 -4 21 C-4.33 21 -4.66 21 -5 21 C-5 18.69 -5 16.38 -5 14 C-5.66 14 -6.32 14 -7 14 C-8.125 12.3125 -8.125 12.3125 -9 10 C-8.125 7.25 -8.125 7.25 -7 5 C-6.67 5.99 -6.34 6.98 -6 8 C-5.34 8 -4.68 8 -4 8 C-3.896875 7.4225 -3.79375 6.845 -3.6875 6.25 C-2.90207202 3.67950842 -1.69495803 2.06342716 0 0 Z " fill="#394145" transform="translate(563,107)"/>
<path d="M0 0 C2 2 2 2 2 4 C-1.42706405 6.49615176 -5.15782339 8.54290757 -8.8125 10.6875 C-9.83666016 11.30689453 -10.86082031 11.92628906 -11.91601562 12.56445312 C-12.89892578 13.14517578 -13.88183594 13.72589844 -14.89453125 14.32421875 C-15.80050049 14.86135498 -16.70646973 15.39849121 -17.63989258 15.9519043 C-20 17 -20 17 -23 16 C-22.2575 15.5875 -21.515 15.175 -20.75 14.75 C-18.0854591 13.05438306 -16.18512468 11.25796217 -14 9 C-10.55549263 6.70366176 -8.06187717 6.45983515 -4 6 C-4 5.01 -4 4.02 -4 3 C-3.01 3 -2.02 3 -1 3 C-0.67 2.01 -0.34 1.02 0 0 Z " fill="#246B34" transform="translate(43,89)"/>
<path d="M0 0 C4.49797113 1.68673918 8.72886302 3.81673892 13 6 C13 5.01 13 4.02 13 3 C13.66 3.33 14.32 3.66 15 4 C15.99 3.67 16.98 3.34 18 3 C18.33 3.66 18.66 4.32 19 5 C19.33 5.33 19.66 5.66 20 6 C19.67 6.66 19.34 7.32 19 8 C21.64 8.66 24.28 9.32 27 10 C27 10.33 27 10.66 27 11 C17.47957264 11.91542571 8.43845142 7.8301376 1 2 C0.67 1.34 0.34 0.68 0 0 Z " fill="#20252A" transform="translate(448,154)"/>
<path d="M0 0 C0.33 0 0.66 0 1 0 C0.68760749 8.43459786 -2.93892449 15.13804385 -8.875 21.125 C-9.57625 21.74375 -10.2775 22.3625 -11 23 C-11.99 22.67 -12.98 22.34 -14 22 C-13.1875 20.0625 -13.1875 20.0625 -12 18 C-11.01 17.67 -10.02 17.34 -9 17 C-8.67 16.01 -8.34 15.02 -8 14 C-7.01 13.67 -6.02 13.34 -5 13 C-3.78787226 10.77977039 -3.78787226 10.77977039 -2.875 8.125 C-2.54242187 7.24070313 -2.20984375 6.35640625 -1.8671875 5.4453125 C-1.22583675 3.63681895 -0.60679319 1.82037956 0 0 Z " fill="#212528" transform="translate(619,134)"/>
<path d="M0 0 C2.76390737 2.40339772 3.04065919 3.16263678 4 7 C-4.25 7 -12.5 7 -21 7 C-21.33 5.68 -21.66 4.36 -22 3 C-21.01 3.495 -21.01 3.495 -20 4 C-20 4.66 -20 5.32 -20 6 C-19.01 6 -18.02 6 -17 6 C-16.67 5.34 -16.34 4.68 -16 4 C-10.39 4.33 -4.78 4.66 1 5 C0.67 3.35 0.34 1.7 0 0 Z " fill="#161A1E" transform="translate(529,83)"/>
<path d="M0 0 C0.66 0.33 1.32 0.66 2 1 C1.01 2.485 1.01 2.485 0 4 C-0.0396713 5.66619446 -0.04384447 7.33391013 0 9 C-1 10 -1 10 -3.5625 10.0625 C-4.366875 10.041875 -5.17125 10.02125 -6 10 C-6.33 9.01 -6.66 8.02 -7 7 C-8.32 7.33 -9.64 7.66 -11 8 C-7.71644638 4.32241995 -4.37221763 2.18610882 0 0 Z " fill="#2D3435" transform="translate(55,113)"/>
<path d="M0 0 C-2 2 -2 2 -4.8203125 2.1953125 C-5.91085937 2.17210938 -7.00140625 2.14890625 -8.125 2.125 C-9.22070312 2.10695313 -10.31640625 2.08890625 -11.4453125 2.0703125 C-12.28835938 2.04710938 -13.13140625 2.02390625 -14 2 C-14 2.66 -14 3.32 -14 4 C-13.34 4.33 -12.68 4.66 -12 5 C-12.33 5.99 -12.66 6.98 -13 8 C-15.375 8.1875 -15.375 8.1875 -18 8 C-18.66 7.01 -19.32 6.02 -20 5 C-19.01 5 -18.02 5 -17 5 C-17.66 4.67 -18.32 4.34 -19 4 C-19 3.34 -19 2.68 -19 2 C-12.53991163 0.04978464 -6.7281627 -0.22262303 0 0 Z " fill="#282D30" transform="translate(732,83)"/>
<path d="M0 0 C1.32 0.66 2.64 1.32 4 2 C3.01 2.33 2.02 2.66 1 3 C0.34 3.66 -0.32 4.32 -1 5 C-1.66 5 -2.32 5 -3 5 C-3 6.32 -3 7.64 -3 9 C-3.30404678 10.67225729 -3.63128912 12.34080104 -4 14 C-5.32 13.67 -6.64 13.34 -8 13 C-8.97079451 9.9797504 -9.32756618 7.93961083 -8 5 C-5.09303401 2.85802506 -3.64478912 2 0 2 C0 1.34 0 0.68 0 0 Z " fill="#313B3E" transform="translate(405,87)"/>
<path d="M0 0 C0.2475 0.639375 0.495 1.27875 0.75 1.9375 C1.81562433 4.18741541 1.81562433 4.18741541 4.125 4.75 C4.74375 4.8325 5.3625 4.915 6 5 C3.74259377 7.33524782 1.7194239 9.18705073 -1 11 C-3 11 -5 11 -7 11 C-7 10.34 -7 9.68 -7 9 C-6.01 8.34 -5.02 7.68 -4 7 C-3.29788106 5.34795544 -2.63028587 3.68076231 -2 2 C-1.34 1.34 -0.68 0.68 0 0 Z " fill="#3C454B" transform="translate(745,153)"/>
<path d="M0 0 C5.75 0.75 5.75 0.75 8 3 C8 3.99 8 4.98 8 6 C6.865625 5.95875 5.73125 5.9175 4.5625 5.875 C-0.14383562 5.85816159 -4.46316004 6.82378223 -9 8 C-8.67 7.01 -8.34 6.02 -8 5 C-6.00428677 4.32060826 -4.00405227 3.65438441 -2 3 C-1.34 2.01 -0.68 1.02 0 0 Z " fill="#2C3335" transform="translate(725,93)"/>
<path d="M0 0 C0.99 0.4021875 0.99 0.4021875 2 0.8125 C2.99 1.204375 3.98 1.59625 5 2 C5.639375 2.26425781 6.27875 2.52851562 6.9375 2.80078125 C10.75935662 4.32807622 13.80653593 5.39313726 18 5 C18 5.99 18 6.98 18 8 C18.3062434 9.33981486 18.63451555 10.67511887 19 12 C14.46463751 10.41305672 10.68503997 8.0435173 6.6875 5.4375 C6.04232422 5.02564453 5.39714844 4.61378906 4.73242188 4.18945312 C3.13495169 3.15659145 1.56465902 2.08192254 0 1 C0 0.67 0 0.34 0 0 Z " fill="#26783A" transform="translate(138,88)"/>
<path d="M0 0 C0.55945313 0.19335938 1.11890625 0.38671875 1.6953125 0.5859375 C9.02740672 2.96709993 16.36161402 4.06446281 24 5 C24 5.33 24 5.66 24 6 C16.41 6 8.82 6 1 6 C1 5.34 1 4.68 1 4 C0.01 3.67 -0.98 3.34 -2 3 C-1.01 3 -0.02 3 1 3 C0.67 2.01 0.34 1.02 0 0 Z " fill="#1D2324" transform="translate(464,142)"/>
<path d="M0 0 C0 0.99 0 1.98 0 3 C0.66 3 1.32 3 2 3 C1.67 3.99 1.34 4.98 1 6 C0.34 6 -0.32 6 -1 6 C-1.33 6.66 -1.66 7.32 -2 8 C-2.99 8 -3.98 8 -5 8 C-5 7.01 -5 6.02 -5 5 C-6.65 5.66 -8.3 6.32 -10 7 C-8.60449526 2.81348579 -4.64858615 0 0 0 Z " fill="#2A3436" transform="translate(39,124)"/>
<path d="M0 0 C0.33 1.65 0.66 3.3 1 5 C-0.0725 5.12375 -1.145 5.2475 -2.25 5.375 C-5.82385483 5.78173316 -5.82385483 5.78173316 -8.125 7.0625 C-10.50818085 8.25409043 -12.37227096 8.14598495 -15 8 C-5.57142857 0 -5.57142857 0 0 0 Z " fill="#25753F" transform="translate(47,28)"/>
<path d="M0 0 C0.61875 0.165 1.2375 0.33 1.875 0.5 C3.96063386 1.07634644 3.96063386 1.07634644 6 1 C6.66 1 7.32 1 8 1 C7.67 2.32 7.34 3.64 7 5 C5.35 5.33 3.7 5.66 2 6 C1.34 8.31 0.68 10.62 0 13 C-0.66 13 -1.32 13 -2 13 C-2.33 13.66 -2.66 14.32 -3 15 C-2.69052329 13.06201479 -2.37731166 11.12462574 -2.0625 9.1875 C-1.88847656 8.10855469 -1.71445312 7.02960938 -1.53515625 5.91796875 C-1 3 -1 3 0 0 Z " fill="#3F4549" transform="translate(545,102)"/>
<path d="M0 0 C10.74259681 5.0022779 10.74259681 5.0022779 14 9 C12.02 8.34 10.04 7.68 8 7 C8 7.66 8 8.32 8 9 C6.35 9 4.7 9 3 9 C3 5 3 5 4 4 C2.68 3.34 1.36 2.68 0 2 C0 1.34 0 0.68 0 0 Z " fill="#252E2F" transform="translate(109,99)"/>
<path d="M0 0 C1.65 0 3.3 0 5 0 C-3.44827586 7 -3.44827586 7 -8 7 C-8.33 5.68 -8.66 4.36 -9 3 C-2.25 0.875 -2.25 0.875 0 2 C0 1.34 0 0.68 0 0 Z " fill="#23743E" transform="translate(80,68)"/>
<path d="M0 0 C1.32 0 2.64 0 4 0 C4 0.66 4 1.32 4 2 C3.34 2 2.68 2 2 2 C2 3.98 2 5.96 2 8 C3.65 8.33 5.3 8.66 7 9 C6.01 9.66 5.02 10.32 4 11 C4 11.33 4 11.66 4 12 C2.35 12 0.7 12 -1 12 C-0.67 8.04 -0.34 4.08 0 0 Z " fill="#058930" transform="translate(4,100)"/>
<path d="M0 0 C5.39776952 -0.36802974 5.39776952 -0.36802974 8.25 1.375 C9.52400094 2.55800087 10.77065679 3.77065679 12 5 C12.99 5.66 13.98 6.32 15 7 C8.1572259 7.72029201 8.1572259 7.72029201 4.91015625 5.69921875 C3.16407476 4.20308758 1.5253265 2.72075896 0 1 C0 0.67 0 0.34 0 0 Z " fill="#3B4345" transform="translate(555,156)"/>
<path d="M0 0 C0.99 0.33 1.98 0.66 3 1 C3 3.31 3 5.62 3 8 C1.68 7.34 0.36 6.68 -1 6 C-1.66 7.65 -2.32 9.3 -3 11 C-3.66 10.01 -4.32 9.02 -5 8 C-3.25 4.125 -3.25 4.125 -1 3 C-0.67 2.01 -0.34 1.02 0 0 Z " fill="#3C464B" transform="translate(508,132)"/>
<path d="M0 0 C0.33 0 0.66 0 1 0 C1 6.93 1 13.86 1 21 C-2.96 20.67 -6.92 20.34 -11 20 C-11 19.67 -11 19.34 -11 19 C-7.7 19 -4.4 19 -1 19 C-0.67 12.73 -0.34 6.46 0 0 Z " fill="#353D3A" transform="translate(682,84)"/>
<path d="M0 0 C0.33 0.66 0.66 1.32 1 2 C0.484375 2.4125 -0.03125 2.825 -0.5625 3.25 C-1.036875 3.8275 -1.51125 4.405 -2 5 C-1.77242269 7.16299211 -1.77242269 7.16299211 -1 9 C-3.16874252 8.49396008 -4.99967627 8.00016187 -7 7 C-9.11683841 7.89163577 -9.11683841 7.89163577 -11 9 C-9.72648692 5.17946076 -8.37362475 4.76978625 -4.9375 2.8125 C-4.01839844 2.28269531 -3.09929688 1.75289062 -2.15234375 1.20703125 C-1.44207031 0.80871094 -0.73179688 0.41039062 0 0 Z " fill="#21272B" transform="translate(27,130)"/>
<path d="M0 0 C2.8125 -0.25 2.8125 -0.25 6 0 C7.875 2 7.875 2 9 4 C8.01 5.485 8.01 5.485 7 7 C6.67 6.67 6.34 6.34 6 6 C5.67 6.99 5.34 7.98 5 9 C2 4.25 2 4.25 2 2 C1.34 2 0.68 2 0 2 C0 1.34 0 0.68 0 0 Z " fill="#2E3537" transform="translate(737,100)"/>
<path d="M0 0 C3.49355371 3.02774655 4.90106142 5.51266745 6 10 C6.125 12.875 6.125 12.875 6 15 C5.34 15 4.68 15 4 15 C3.3299166 12.87607494 2.66403203 10.75082476 2 8.625 C1.62875 7.44164063 1.2575 6.25828125 0.875 5.0390625 C0 2 0 2 0 0 Z " fill="#2F3539" transform="translate(524,73)"/>
<path d="M0 0 C3.36591866 1.44253657 5.51047079 3.33264727 8 6 C7.67 6.66 7.34 7.32 7 8 C6.67 8 6.34 8 6 8 C6 8.66 6 9.32 6 10 C4.35 10.33 2.7 10.66 1 11 C1.32552083 9.01432292 1.65104167 7.02864583 1.9765625 5.04296875 C2.19577848 2.68244176 2.19577848 2.68244176 0 0 Z " fill="#222A2F" transform="translate(515,64)"/>
<path d="M0 0 C0.7734375 0.61875 0.7734375 0.61875 1.5625 1.25 C-0.0875 1.25 -1.7375 1.25 -3.4375 1.25 C-3.7675 2.57 -4.0975 3.89 -4.4375 5.25 C-5.7575 5.25 -7.0775 5.25 -8.4375 5.25 C-8.4375 5.91 -8.4375 6.57 -8.4375 7.25 C-10.4175 7.25 -12.3975 7.25 -14.4375 7.25 C-4.32459677 -1.33064516 -4.32459677 -1.33064516 0 0 Z " fill="#297742" transform="translate(82.4375,6.75)"/>
<path d="M0 0 C4.61513112 1.31860889 8.09897612 3.21355437 12 6 C11.67 6.66 11.34 7.32 11 8 C7.89287788 7.21362959 4.90755893 6.36075884 2 5 C0.4375 2.3125 0.4375 2.3125 0 0 Z " fill="#293033" transform="translate(132,113)"/>
<path d="M0 0 C2.375 1.5625 2.375 1.5625 4 3 C3.67 4.32 3.34 5.64 3 7 C1.02 6.34 -0.96 5.68 -3 5 C-2.01 4.34 -1.02 3.68 0 3 C-1.18424326 1.58422523 -1.18424326 1.58422523 -4.5625 1.9375 C-6.2640625 1.9684375 -6.2640625 1.9684375 -8 2 C-8 1.34 -8 0.68 -8 0 C-5.05854616 -1.47072692 -3.14695372 -0.75526889 0 0 Z " fill="#2A3132" transform="translate(98,92)"/>
<path d="M0 0 C4.455 0.99 4.455 0.99 9 2 C9.33 1.34 9.66 0.68 10 0 C10 1.32 10 2.64 10 4 C10.99 4.33 11.98 4.66 13 5 C13 5.33 13 5.66 13 6 C7.57689095 5.56615128 4.29855944 4.35497322 0 1 C0 0.67 0 0.34 0 0 Z " fill="#293334" transform="translate(27,212)"/>
<path d="M0 0 C0.33 0 0.66 0 1 0 C1.33 3.63 1.66 7.26 2 11 C4.97 11.495 4.97 11.495 8 12 C8 12.66 8 13.32 8 14 C2.25 15 2.25 15 0 15 C0 10.05 0 5.1 0 0 Z " fill="#2B8643" transform="translate(2,100)"/>
<path d="M0 0 C0.99 0.33 1.98 0.66 3 1 C3 2.65 3 4.3 3 6 C-2.61 5.67 -8.22 5.34 -14 5 C-14 4.67 -14 4.34 -14 4 C-7.565 3.505 -7.565 3.505 -1 3 C-0.67 2.01 -0.34 1.02 0 0 Z " fill="#1E2125" transform="translate(389,159)"/>
<path d="M0 0 C0.61875 0.28875 1.2375 0.5775 1.875 0.875 C2.205 1.865 2.535 2.855 2.875 3.875 C2.215 3.875 1.555 3.875 0.875 3.875 C0.875 4.535 0.875 5.195 0.875 5.875 C-1.105 5.875 -3.085 5.875 -5.125 5.875 C-5.125 2.875 -5.125 2.875 -3.875 1.125 C-2.125 -0.125 -2.125 -0.125 0 0 Z " fill="#293334" transform="translate(62.125,110.125)"/>
<path d="M0 0 C0.66 0.33 1.32 0.66 2 1 C1.75 3.375 1.75 3.375 1 6 C-1.0625 7.3125 -1.0625 7.3125 -3 8 C-3.99 7.34 -4.98 6.68 -6 6 C-4.02 4.02 -2.04 2.04 0 0 Z " fill="#242C2D" transform="translate(703,91)"/>
<path d="M0 0 C0.75410156 0.00451172 1.50820313 0.00902344 2.28515625 0.01367188 C4.14847127 0.02546501 6.01174555 0.04340058 7.875 0.0625 C7.875 0.3925 7.875 0.7225 7.875 1.0625 C6.87919922 1.15337891 6.87919922 1.15337891 5.86328125 1.24609375 C1.47113868 1.6628664 -2.80509591 2.14615671 -7.125 3.0625 C-8.115 3.0625 -9.105 3.0625 -10.125 3.0625 C-10.125 2.4025 -10.125 1.7425 -10.125 1.0625 C-6.93675432 -0.53162284 -3.49603338 -0.03924735 0 0 Z " fill="#495052" transform="translate(644.125,161.9375)"/>
<path d="M0 0 C-5.21084821 3.15393444 -7.81474757 4.11454171 -14 4 C-13.67 3.34 -13.34 2.68 -13 2 C-13.66 1.34 -14.32 0.68 -15 0 C-9.25 0.875 -9.25 0.875 -7 2 C-7 1.34 -7 0.68 -7 0 C-3.98968256 -0.93423645 -3.13349732 -1.04449911 0 0 Z " fill="#3C474C" transform="translate(509,159)"/>
<path d="M0 0 C0 0.99 0 1.98 0 3 C-0.66 3.66 -1.32 4.32 -2 5 C-2.99 5 -3.98 5 -5 5 C-6.67099977 5.31088368 -8.33871537 5.64080332 -10 6 C-10 5.34 -10 4.68 -10 4 C-3.375 0 -3.375 0 0 0 Z " fill="#252D32" transform="translate(78,101)"/>
<path d="M0 0 C1.32 0.66 2.64 1.32 4 2 C0.37 3.98 -3.26 5.96 -7 8 C-7.33 6.68 -7.66 5.36 -8 4 C-7.05125 3.896875 -6.1025 3.79375 -5.125 3.6875 C-1.70892499 3.31460705 -1.70892499 3.31460705 0 0 Z " fill="#2A7442" transform="translate(66,76)"/>
<path d="M0 0 C3.3 0 6.6 0 10 0 C10.33 1.32 10.66 2.64 11 4 C9.783125 3.814375 8.56625 3.62875 7.3125 3.4375 C3.97022061 3.01006818 1.28031583 3.07741117 -2 4 C-1.34 2.68 -0.68 1.36 0 0 Z " fill="#1D6A2D" transform="translate(89,62)"/>
<path d="M0 0 C3.96 1.98 7.92 3.96 12 6 C11.34 6.66 10.68 7.32 10 8 C9.01 7.34 8.02 6.68 7 6 C5.0103005 5.60986284 3.00980131 5.26797351 1 5 C0.67 3.35 0.34 1.7 0 0 Z " fill="#206F36" transform="translate(165,41)"/>
<path d="M0 0 C4.75481646 0.57634139 7.97048212 2.55068521 12 5 C10 6 8 7 6 8 C6 7.34 6 6.68 6 6 C5.34 5.67 4.68 5.34 4 5 C2.63755204 3.35704805 1.30135125 1.69175663 0 0 Z " fill="#262F2F" transform="translate(148,123)"/>
<path d="M0 0 C4.95 0.99 4.95 0.99 10 2 C9.67 2.99 9.34 3.98 9 5 C9.99 5.33 10.98 5.66 12 6 C11.01 6.495 11.01 6.495 10 7 C7.6171875 5.8203125 7.6171875 5.8203125 4.875 4.125 C3.96492188 3.57070312 3.05484375 3.01640625 2.1171875 2.4453125 C1.41851562 1.96835938 0.71984375 1.49140625 0 1 C0 0.67 0 0.34 0 0 Z " fill="#252A2E" transform="translate(13,204)"/>
<path d="M0 0 C3 1 3 1 4 3 C4.66 2.67 5.32 2.34 6 2 C6.66 4.64 7.32 7.28 8 10 C7.01 10.495 7.01 10.495 6 11 C5.566875 10.030625 5.13375 9.06125 4.6875 8.0625 C3.2985139 4.72268235 3.2985139 4.72268235 0 4 C0 2.68 0 1.36 0 0 Z " fill="#434D4F" transform="translate(594,104)"/>
<path d="M0 0 C-0.33 1.98 -0.66 3.96 -1 6 C-2.65 6.33 -4.3 6.66 -6 7 C-6.33 6.34 -6.66 5.68 -7 5 C-6.34 5 -5.68 5 -5 5 C-5 4.01 -5 3.02 -5 2 C-5.66 1.67 -6.32 1.34 -7 1 C-4.53721199 -0.231394 -2.7204945 -0.07159196 0 0 Z " fill="#3A444A" transform="translate(83,99)"/>
<path d="M0 0 C5.28137429 0.51525603 8.57221156 2.25477117 13 5 C12.01 6.485 12.01 6.485 11 8 C10.34 8 9.68 8 9 8 C9 7.34 9 6.68 9 6 C8.34 5.67 7.68 5.34 7 5 C7 4.34 7 3.68 7 3 C5.824375 2.814375 5.824375 2.814375 4.625 2.625 C2 2 2 2 0 0 Z " fill="#262C2E" transform="translate(739,85)"/>
<path d="M0 0 C2.9375 1.25 2.9375 1.25 6 3 C6.875 5.1875 6.875 5.1875 7 7 C4.61435923 6.42415568 2.33317216 5.77772405 0 5 C0 3.35 0 1.7 0 0 Z " fill="#248043" transform="translate(111,9)"/>
<path d="M0 0 C0 0.66 0 1.32 0 2 C0.99 2 1.98 2 3 2 C3 2.66 3 3.32 3 4 C1.35 4 -0.3 4 -2 4 C-2.33 4.66 -2.66 5.32 -3 6 C-4.32 5.01 -5.64 4.02 -7 3 C-2.25 0 -2.25 0 0 0 Z " fill="#1F8339" transform="translate(92,0)"/>
<path d="M0 0 C0.598125 0.33 1.19625 0.66 1.8125 1 C4.05386471 2.20787988 4.05386471 2.20787988 7 2 C7 3.65 7 5.3 7 7 C4.36 5.68 1.72 4.36 -1 3 C-0.67 2.01 -0.34 1.02 0 0 Z " fill="#3A4547" transform="translate(75,236)"/>
<path d="M0 0 C0.33 0.99 0.66 1.98 1 3 C1.99 3.33 2.98 3.66 4 4 C4 4.66 4 5.32 4 6 C3.34 6 2.68 6 2 6 C1.67 6.66 1.34 7.32 1 8 C-2 7 -2 7 -3 6 C-1.125 1.125 -1.125 1.125 0 0 Z " fill="#252C2E" transform="translate(549,97)"/>
<path d="M0 0 C0.66 0.33 1.32 0.66 2 1 C1.01 1.33 0.02 1.66 -1 2 C-1.73323796 4.01508358 -1.73323796 4.01508358 -2 6 C-4.31 6.33 -6.62 6.66 -9 7 C-3.51752022 1.21293801 -3.51752022 1.21293801 0 0 Z " fill="#222629" transform="translate(563,86)"/>
<path d="M0 0 C1.98 0 3.96 0 6 0 C5.01 0.495 5.01 0.495 4 1 C4 1.66 4 2.32 4 3 C4.66 3.33 5.32 3.66 6 4 C5.01 4 4.02 4 3 4 C2.67 4.66 2.34 5.32 2 6 C1.01 5.34 0.02 4.68 -1 4 C-0.67 2.68 -0.34 1.36 0 0 Z " fill="#303A40" transform="translate(341,54)"/>
<path d="M0 0 C3.58060962 0.07161219 5.52291402 0.71041402 8.125 3.3125 C5.75 4.375 5.75 4.375 3.125 5.3125 C2.465 4.9825 1.805 4.6525 1.125 4.3125 C1.125 3.6525 1.125 2.9925 1.125 2.3125 C-1.185 2.3125 -3.495 2.3125 -5.875 2.3125 C-3.875 0.3125 -3.875 0.3125 0 0 Z " fill="#444D52" transform="translate(343.875,52.6875)"/>
<path d="M0 0 C4.95 0.33 9.9 0.66 15 1 C15 1.33 15 1.66 15 2 C14.10796875 2.06058594 13.2159375 2.12117187 12.296875 2.18359375 C10.54117187 2.30927734 10.54117187 2.30927734 8.75 2.4375 C7.00976562 2.55931641 7.00976562 2.55931641 5.234375 2.68359375 C2.69022624 2.93247787 0.44046752 3.28114942 -2 4 C-2 3.34 -2 2.68 -2 2 C-1.34 2 -0.68 2 0 2 C0 1.34 0 0.68 0 0 Z " fill="#3F474D" transform="translate(373,161)"/>
<path d="M0 0 C0.66 0.66 1.32 1.32 2 2 C5.09926819 1.67801034 5.09926819 1.67801034 8 1 C7.01 1.495 7.01 1.495 6 2 C6.33 2.99 6.66 3.98 7 5 C5.02 5.33 3.04 5.66 1 6 C0.01 4.68 -0.98 3.36 -2 2 C-1.34 2 -0.68 2 0 2 C0 1.34 0 0.68 0 0 Z " fill="#3B464C" transform="translate(712,159)"/>
<path d="M0 0 C0.33 0 0.66 0 1 0 C1.33 3.3 1.66 6.6 2 10 C1.34 10 0.68 10 0 10 C0 10.66 0 11.32 0 12 C-0.99 11.67 -1.98 11.34 -3 11 C-2.01 7.37 -1.02 3.74 0 0 Z " fill="#242A31" transform="translate(709,110)"/>
<path d="M0 0 C0.33 0.66 0.66 1.32 1 2 C0.34 2.66 -0.32 3.32 -1 4 C-0.01 5.485 -0.01 5.485 1 7 C0.01 7.33 -0.98 7.66 -2 8 C-3.33333333 6.66666667 -4.66666667 5.33333333 -6 4 C-4.02 2.68 -2.04 1.36 0 0 Z " fill="#212B2D" transform="translate(14,138)"/>
<path d="M0 0 C0.33 0.99 0.66 1.98 1 3 C1.66 3.33 2.32 3.66 3 4 C0.36 5.65 -2.28 7.3 -5 9 C-4.34 7.68 -3.68 6.36 -3 5 C-3 4.01 -3 3.02 -3 2 C-2.01 1.34 -1.02 0.68 0 0 Z " fill="#222A2E" transform="translate(663,102)"/>
<path d="M0 0 C5.28 0 10.56 0 16 0 C16 0.99 16 1.98 16 3 C12.24279056 4.25240315 11.58949199 3.4357968 8 2 C5.33597161 1.54444124 2.69171836 1.27373407 0 1 C0 0.67 0 0.34 0 0 Z " fill="#3D464A" transform="translate(486,56)"/>
<path d="M0 0 C3.96 1.98 3.96 1.98 8 4 C7.01 4.495 7.01 4.495 6 5 C5.67 5.99 5.34 6.98 5 8 C4.34 7.67 3.68 7.34 3 7 C3 6.01 3 5.02 3 4 C2.34 4 1.68 4 1 4 C0.67 2.68 0.34 1.36 0 0 Z " fill="#257A3E" transform="translate(96,0)"/>
<path d="M0 0 C0.66 0.66 1.32 1.32 2 2 C-0.83430453 5.2542015 -2.68607774 6.5206753 -7 7 C-7 5.68 -7 4.36 -7 3 C-5.5459375 2.5359375 -5.5459375 2.5359375 -4.0625 2.0625 C-1.15934208 1.30476658 -1.15934208 1.30476658 0 0 Z " fill="#3E494D" transform="translate(743,145)"/>
<path d="M0 0 C1.32 0.66 2.64 1.32 4 2 C4 3.98 4 5.96 4 8 C2.0625 7.25 2.0625 7.25 0 6 C-0.8125 4 -0.8125 4 -1 2 C-0.67 1.34 -0.34 0.68 0 0 Z " fill="#117631" transform="translate(156,93)"/>
<path d="M0 0 C2.15634036 2.15634036 3.47793991 4.37098712 5 7 C4.01 7.33 3.02 7.66 2 8 C2 7.34 2 6.68 2 6 C0.68 5.67 -0.64 5.34 -2 5 C-1.34 3.35 -0.68 1.7 0 0 Z " fill="#3B4346" transform="translate(605,90)"/>
<path d="M0 0 C-0.57344937 2.86724686 -0.8614515 3.8614515 -3 6 C-3.99 5.34 -4.98 4.68 -6 4 C-6.66 3.67 -7.32 3.34 -8 3 C-2 0 -2 0 0 0 Z " fill="#434A4D" transform="translate(668,88)"/>
<path d="M0 0 C1.65 0.33 3.3 0.66 5 1 C2.87219421 3.34058637 0.88437779 4.70700306 -2 6 C-2.33 5.34 -2.66 4.68 -3 4 C-2.67 3.34 -2.34 2.68 -2 2 C-1.34 2 -0.68 2 0 2 C0 1.34 0 0.68 0 0 Z " fill="#26783D" transform="translate(51,84)"/>
<path d="M0 0 C0.66 0.99 1.32 1.98 2 3 C1.34 3.66 0.68 4.32 0 5 C-3.125 4.625 -3.125 4.625 -6 4 C-4 1 -4 1 -1.875 0.3125 C-1.25625 0.209375 -0.6375 0.10625 0 0 Z " fill="#127831" transform="translate(87,3)"/>
<path d="M0 0 C2.31 0.33 4.62 0.66 7 1 C7 1.99 7 2.98 7 4 C3.37 4 -0.26 4 -4 4 C-2.68 3.67 -1.36 3.34 0 3 C0 2.01 0 1.02 0 0 Z " fill="#3E454D" transform="translate(590,160)"/>
<path d="M0 0 C2.1519437 3.22791555 2.20086443 4.28400809 2 8 C1.01 8.495 1.01 8.495 0 9 C-1.3950848 6.70221327 -2.07438619 5.5207033 -1.6875 2.8125 C-1 1 -1 1 0 0 Z " fill="#3A4249" transform="translate(694,138)"/>
<path d="M0 0 C0.33 0.99 0.66 1.98 1 3 C1.99 3.33 2.98 3.66 4 4 C1.69 5.32 -0.62 6.64 -3 8 C-3.33 7.34 -3.66 6.68 -4 6 C-3.01 5.34 -2.02 4.68 -1 4 C-1.33 3.01 -1.66 2.02 -2 1 C-1.34 0.67 -0.68 0.34 0 0 Z " fill="#156F30" transform="translate(13,105)"/>
<path d="M0 0 C-0.33 1.98 -0.66 3.96 -1 6 C-2.9375 5.625 -2.9375 5.625 -5 5 C-5.33 4.34 -5.66 3.68 -6 3 C-6.66 2.67 -7.32 2.34 -8 2 C-2.25 0 -2.25 0 0 0 Z " fill="#2E3638" transform="translate(498,69)"/>
<path d="M0 0 C3.74171065 0.50563657 5.5571028 1.11293967 8 4 C8.556875 4.556875 9.11375 5.11375 9.6875 5.6875 C10.3371875 6.3371875 10.3371875 6.3371875 11 7 C6.00724943 5.72278474 3.42388092 3.82669043 0 0 Z " fill="#1E6734" transform="translate(101,66)"/>
<path d="M0 0 C0.99 0.66 1.98 1.32 3 2 C2.67 3.32 2.34 4.64 2 6 C-0.97 5.505 -0.97 5.505 -4 5 C-4 4.34 -4 3.68 -4 3 C-3.01 2.67 -2.02 2.34 -1 2 C-0.67 1.34 -0.34 0.68 0 0 Z " fill="#238B45" transform="translate(185,52)"/>
<path d="M0 0 C2.33944736 0.28730055 4.6739143 0.61936779 7 1 C7 1.99 7 2.98 7 4 C7.66 4.33 8.32 4.66 9 5 C8.01 5 7.02 5 6 5 C6 4.34 6 3.68 6 3 C4.02 3.33 2.04 3.66 0 4 C-0.33 3.01 -0.66 2.02 -1 1 C-0.67 0.67 -0.34 0.34 0 0 Z " fill="#1C8943" transform="translate(141,29)"/>
<path d="M0 0 C1.65 0.33 3.3 0.66 5 1 C4.319375 1.5775 3.63875 2.155 2.9375 2.75 C1.9784375 3.86375 1.9784375 3.86375 1 5 C1.13641377 7.21858253 1.13641377 7.21858253 2 9 C1.01 9.495 1.01 9.495 0 10 C-0.66 9.34 -1.32 8.68 -2 8 C-1.67 7.236875 -1.34 6.47375 -1 5.6875 C0.17436686 3.00930865 0.17436686 3.00930865 0 0 Z " fill="#3D4548" transform="translate(605,149)"/>
<path d="M0 0 C1.98 0.66 3.96 1.32 6 2 C5.67 4.31 5.34 6.62 5 9 C4.67 8.01 4.34 7.02 4 6 C3.01 5.67 2.02 5.34 1 5 C1.66 5 2.32 5 3 5 C2.01 3.35 1.02 1.7 0 0 Z " fill="#42474B" transform="translate(519,70)"/>
<path d="M0 0 C0.33 0.99 0.66 1.98 1 3 C0.34 3 -0.32 3 -1 3 C-1 3.66 -1 4.32 -1 5 C-1.66 5.66 -2.32 6.32 -3 7 C-3.99 7 -4.98 7 -6 7 C-5.8125 5.1875 -5.8125 5.1875 -5 3 C-2.4375 1.25 -2.4375 1.25 0 0 Z " fill="#327944" transform="translate(9,49)"/>
<path d="M0 0 C1.32 1.65 2.64 3.3 4 5 C3.01 5.495 3.01 5.495 2 6 C1.01 5.34 0.02 4.68 -1 4 C-2.65549531 3.61500109 -4.3222433 3.27206865 -6 3 C-5.67 2.34 -5.34 1.68 -5 1 C-3.35 1.33 -1.7 1.66 0 2 C0 1.34 0 0.68 0 0 Z " fill="#3F484E" transform="translate(157,189)"/>
<path d="M0 0 C0.66 0 1.32 0 2 0 C3.6875 1.8125 3.6875 1.8125 5 4 C4.67 4.99 4.34 5.98 4 7 C1 6 1 6 -0.25 4.0625 C-0.4975 3.381875 -0.745 2.70125 -1 2 C-0.67 1.34 -0.34 0.68 0 0 Z " fill="#3E4647" transform="translate(437,139)"/>
<path d="M0 0 C0.66 0.99 1.32 1.98 2 3 C-0.64 3 -3.28 3 -6 3 C-6.33 2.01 -6.66 1.02 -7 0 C-2.25 -1.125 -2.25 -1.125 0 0 Z " fill="#3B4346" transform="translate(593,85)"/>
<path d="M0 0 C4.75 0.75 4.75 0.75 7 3 C5.515 5.475 5.515 5.475 4 8 C3.4465236 5.92446352 3 4.15634036 3 2 C2.01 1.67 1.02 1.34 0 1 C0 0.67 0 0.34 0 0 Z " fill="#2F3537" transform="translate(450,85)"/>
<path d="M0 0 C1.21236328 0.02707031 1.21236328 0.02707031 2.44921875 0.0546875 C3.37154297 0.08949219 3.37154297 0.08949219 4.3125 0.125 C4.3125 0.455 4.3125 0.785 4.3125 1.125 C3.405 1.24875 2.4975 1.3725 1.5625 1.5 C-1.27720323 2.04609677 -3.21340591 2.69763803 -5.6875 4.125 C-6.3475 3.465 -7.0075 2.805 -7.6875 2.125 C-4.48369983 -0.01086678 -3.66810033 -0.10632175 0 0 Z " fill="#3E494F" transform="translate(581.6875,149.875)"/>
<path d="M0 0 C0.268125 0.61875 0.53625 1.2375 0.8125 1.875 C1.95556848 4.2995233 1.95556848 4.2995233 5 6 C4.67 7.32 4.34 8.64 4 10 C1.9754262 8.06745228 0.57894208 6.36841312 -1 4 C-0.625 1.8125 -0.625 1.8125 0 0 Z " fill="#3F494C" transform="translate(544,140)"/>
<path d="M0 0 C1.32 0.66 2.64 1.32 4 2 C3.34 3.98 2.68 5.96 2 8 C1.01 7.34 0.02 6.68 -1 6 C-1.25 3.4375 -1.25 3.4375 -1 1 C-0.67 0.67 -0.34 0.34 0 0 Z " fill="#262D2E" transform="translate(691,108)"/>
<path d="M0 0 C2 2 2 2 2 4 C0.02 4.99 -1.96 5.98 -4 7 C-4 5.68 -4 4.36 -4 3 C-3.01 3 -2.02 3 -1 3 C-0.67 2.01 -0.34 1.02 0 0 Z " fill="#2C8048" transform="translate(43,89)"/>
<path d="M0 0 C1.32 0.99 2.64 1.98 4 3 C3.34 4.32 2.68 5.64 2 7 C1.01 6.34 0.02 5.68 -1 5 C-0.67 3.35 -0.34 1.7 0 0 Z " fill="#1A8743" transform="translate(112,68)"/>
<path d="M0 0 C0 1.98 0 3.96 0 6 C-0.33 5.34 -0.66 4.68 -1 4 C-1.66 4 -2.32 4 -3 4 C-3 4.66 -3 5.32 -3 6 C-3.99 5.67 -4.98 5.34 -6 5 C-6 4.34 -6 3.68 -6 3 C-1.5 0 -1.5 0 0 0 Z " fill="#2C834B" transform="translate(28,38)"/>
<path d="M0 0 C2.475 0.495 2.475 0.495 5 1 C5 1.66 5 2.32 5 3 C5.99 3.33 6.98 3.66 8 4 C6.1875 4.625 6.1875 4.625 4 5 C1 3 1 3 0 0 Z " fill="#40484A" transform="translate(9,200)"/>
<path d="M0 0 C1.32 0.66 2.64 1.32 4 2 C3.67 2.66 3.34 3.32 3 4 C0.4375 4.625 0.4375 4.625 -2 5 C-2.33 4.01 -2.66 3.02 -3 2 C-2.01 1.34 -1.02 0.68 0 0 Z " fill="#43494C" transform="translate(592,144)"/>
<path d="M0 0 C1.32 1.65 2.64 3.3 4 5 C3.34 5.66 2.68 6.32 2 7 C1.01 7 0.02 7 -1 7 C-1 6.34 -1 5.68 -1 5 C-0.34 5 0.32 5 1 5 C1 4.34 1 3.68 1 3 C0.01 3 -0.98 3 -2 3 C-1 1 -1 1 0 0 Z " fill="#3A454B" transform="translate(454,132)"/>
<path d="M0 0 C1.32 0.66 2.64 1.32 4 2 C4 3.98 4 5.96 4 8 C3.34 6.68 2.68 5.36 2 4 C1.01 4 0.02 4 -1 4 C-0.67 2.68 -0.34 1.36 0 0 Z " fill="#394347" transform="translate(652,112)"/>
<path d="M0 0 C3.37462715 0.54723683 5.08235 1.0549 8 3 C5.6875 3.625 5.6875 3.625 3 4 C2.01 3.34 1.02 2.68 0 2 C0 1.34 0 0.68 0 0 Z " fill="#26773F" transform="translate(177,110)"/>
<path d="M0 0 C-1.25 1.5625 -1.25 1.5625 -3 3 C-5.1875 2.6875 -5.1875 2.6875 -7 2 C-7 1.34 -7 0.68 -7 0 C-4.3333581 -1.33332095 -2.83319697 -0.67102033 0 0 Z " fill="#228245" transform="translate(21,106)"/>
<path d="M0 0 C1.65 0 3.3 0 5 0 C5.33 0.66 5.66 1.32 6 2 C3.69 2.66 1.38 3.32 -1 4 C-0.67 2.68 -0.34 1.36 0 0 Z " fill="#197A39" transform="translate(67,14)"/>
<path d="M0 0 C2.97 0.495 2.97 0.495 6 1 C6.33 1.99 6.66 2.98 7 4 C6.01 4.33 5.02 4.66 4 5 C2 3 2 3 0 0 Z " fill="#3B4348" transform="translate(22,208)"/>
<path d="M0 0 C0.66 0.99 1.32 1.98 2 3 C0.02 3.66 -1.96 4.32 -4 5 C-4.66 4.34 -5.32 3.68 -6 3 C-4.02 2.01 -2.04 1.02 0 0 Z " fill="#3C4745" transform="translate(172,197)"/>
<path d="M0 0 C3.875 1.75 3.875 1.75 5 4 C4.34 4 3.68 4 3 4 C2.67 4.99 2.34 5.98 2 7 C0.4375 5.75 0.4375 5.75 -1 4 C-0.6875 1.8125 -0.6875 1.8125 0 0 Z " fill="#3D4648" transform="translate(113,164)"/>
<path d="M0 0 C1.98 0.66 3.96 1.32 6 2 C5.67 2.99 5.34 3.98 5 5 C2.5625 4.625 2.5625 4.625 0 4 C-0.33 3.34 -0.66 2.68 -1 2 C-0.67 1.34 -0.34 0.68 0 0 Z " fill="#3F484B" transform="translate(564,142)"/>
<path d="M0 0 C1.98 0.66 3.96 1.32 6 2 C5.67 2.99 5.34 3.98 5 5 C3.35 4.67 1.7 4.34 0 4 C0 2.68 0 1.36 0 0 Z " fill="#252D2F" transform="translate(125,109)"/>
<path d="M0 0 C0.66 1.32 1.32 2.64 2 4 C-1.96 3.67 -5.92 3.34 -10 3 C-10 2.67 -10 2.34 -10 2 C-6.7 2 -3.4 2 0 2 C0 1.34 0 0.68 0 0 Z " fill="#1E2325" transform="translate(681,101)"/>
<path d="M0 0 C0 0.66 0 1.32 0 2 C-2.3125 3.6875 -2.3125 3.6875 -5 5 C-5.99 4.67 -6.98 4.34 -8 4 C-4.5 0 -4.5 0 0 0 Z " fill="#46504E" transform="translate(557,92)"/>
<path d="M0 0 C2.13093906 1.06546953 3.36587557 2.29159719 5 4 C3.35 4.66 1.7 5.32 0 6 C-0.66 5.01 -1.32 4.02 -2 3 C-1.34 3 -0.68 3 0 3 C0 2.01 0 1.02 0 0 Z " fill="#3C4547" transform="translate(738,84)"/>
</svg>
